<?xml version="1.0" encoding="iso-8859-1"?>
<!-- Generator: Adobe Illustrator 19.0.0, SVG Export Plug-In . SVG Version: 6.00 Build 0)  -->
<svg version="1.1" id="Capa_1" xmlns="http://www.w3.org/2000/svg" xmlns:xlink="http://www.w3.org/1999/xlink" x="0px" y="0px"
	 viewBox="0 0 512 512" style="enable-background:new 0 0 512 512;" xml:space="preserve">
<g>
	<g>
		<path d="M437.02,74.981C388.668,26.629,324.38,0,256,0S123.333,26.628,74.98,74.98C26.629,123.333,0,187.62,0,256
			s26.629,132.668,74.98,181.02C123.333,485.372,187.62,512,256,512s132.667-26.628,181.019-74.98
			C485.372,388.667,512,324.38,512,256S485.372,123.333,437.02,74.981z M256,482C131.383,482,30,380.617,30,256S131.383,30,256,30
			s226,101.383,226,226S380.617,482,256,482z"/>
	</g>
</g>
<g>
	<g>
		<path d="M371.793,290.457c-7.592-3.319-16.434,0.147-19.751,7.739c-16.803,38.456-54.771,63.304-96.728,63.304
			c-58.173,0-105.5-47.327-105.5-105.5c0-58.173,47.327-105.5,105.5-105.5c41.715,0,79.595,24.649,96.502,62.796
			c3.357,7.574,12.217,10.995,19.791,7.636c7.574-3.356,10.993-12.217,7.636-19.791c-21.711-48.988-70.356-80.641-123.928-80.641
			c-74.715,0-135.5,60.785-135.5,135.5s60.785,135.5,135.5,135.5c53.881,0,102.64-31.909,124.218-81.292
			C382.85,302.617,379.385,293.774,371.793,290.457z"/>
	</g>
</g>
<g>
</g>
<g>
</g>
<g>
</g>
<g>
</g>
<g>
</g>
<g>
</g>
<g>
</g>
<g>
</g>
<g>
</g>
<g>
</g>
<g>
</g>
<g>
</g>
<g>
</g>
<g>
</g>
<g>
</g>
</svg>
